<svg width="39" height="38" viewBox="0 0 39 38" fill="none" xmlns="http://www.w3.org/2000/svg">
<path d="M16.25 3.95831C18.5217 3.95822 20.7482 4.57678 22.6783 5.74419C24.6083 6.9116 26.1651 8.58137 27.173 10.5651C28.1808 12.5488 28.5995 14.7675 28.3819 16.9708C28.1643 19.1741 27.319 21.2743 25.9415 23.0343L33.6488 30.5472C33.9403 30.8322 34.1095 31.2145 34.1221 31.6166C34.1347 32.0187 33.9897 32.4104 33.7167 32.7121C33.4436 33.0138 33.0629 33.203 32.6519 33.2411C32.2409 33.2793 31.8305 33.1636 31.5038 32.9175L31.3511 32.7861L23.6405 25.2763C22.1016 26.4196 20.3054 27.1895 18.4006 27.5221C16.4957 27.8547 14.5369 27.7406 12.6863 27.1891C10.8357 26.6377 9.14652 25.6648 7.75846 24.3509C6.37039 23.0371 5.32338 21.42 4.70406 19.6336C4.08475 17.8472 3.91094 15.9428 4.19701 14.0779C4.48308 12.213 5.22081 10.4413 6.34916 8.90944C7.4775 7.37754 8.96402 6.12947 10.6857 5.2685C12.4074 4.40753 14.3148 3.95841 16.25 3.95831ZM16.25 7.12498C13.8796 7.12498 11.6063 8.04246 9.9302 9.67559C8.2541 11.3087 7.31247 13.5237 7.31247 15.8333C7.31247 18.1429 8.2541 20.3579 9.9302 21.991C11.6063 23.6242 13.8796 24.5416 16.25 24.5416C18.6203 24.5416 20.8936 23.6242 22.5697 21.991C24.2458 20.3579 25.1875 18.1429 25.1875 15.8333C25.1875 13.5237 24.2458 11.3087 22.5697 9.67559C20.8936 8.04246 18.6203 7.12498 16.25 7.12498Z" fill="#DEE4EA"/>
</svg>
